<?xml version="1.0" encoding="UTF-8"?><svg id="animesig-icon" xmlns="http://www.w3.org/2000/svg" xmlns:xlink="http://www.w3.org/1999/xlink" viewBox="0 0 1080 1080"><defs><style>.cls-1{fill:#fff;}.cls-2{fill:none;}.cls-3{fill:#ffe4ef;}.cls-4{fill:#ffafd0;}.cls-5{clip-path:url(#clippath);}</style><clipPath id="clippath"><circle class="cls-2" cx="540" cy="540" r="540"/></clipPath></defs><g class="cls-5"><circle class="cls-3" cx="540" cy="540" r="540"/><path class="cls-4" d="M942.84,311.19c0,106.25-30.68,205.33-83.68,288.86-20.52,32.35,28.25,94.77,130.2,109.87-124.62,67.97-251.81,26.43-280.18,46.01-87.04,60.07-192.59,95.25-306.35,95.25-298.23,0-540-241.77-540-540S104.61-228.81,402.84-228.81,942.84,12.96,942.84,311.19Z"/><path class="cls-1" d="M117.28,503.48l73.98-22.32,4.45,14.74-73.98,22.32-4.45-14.74ZM124.05,540.29l73.98-22.32,4.45,14.74-73.98,22.32-4.45-14.74ZM142.54,576.72l-12.84-102.91,14.34-4.33,12.84,102.91-14.34,4.33ZM174.44,567.09l-12.84-102.91,14.34-4.33,12.84,102.91-14.34,4.33Z"/><path class="cls-1" d="M218.33,553.85l7.89-109.17,11.71-3.53,66.96,86.58-19.86,5.99-43.6-59.77-3.25,73.91-19.86,5.99ZM231.57,532.74l-5.36-17.77,51.5-15.54,5.36,17.77-51.5,15.54Z"/><path class="cls-1" d="M315.67,524.47l-21.08-69.87,18.44-5.57,21.08,69.87-18.44,5.57ZM356.06,512.29l-12.78-42.34c-1.04-3.46-2.82-5.82-5.33-7.09-2.51-1.27-5.57-1.37-9.16-.29-3.41,1.03-5.76,2.78-7.05,5.25-1.29,2.47-1.41,5.43-.37,8.89l-6.08-15.06c.75-4.83,2.22-8.82,4.42-11.98,2.2-3.16,5.62-5.44,10.24-6.83,7.36-2.22,13.81-1.46,19.34,2.28,5.54,3.74,9.67,10.14,12.41,19.21l12.8,42.41-18.44,5.57Z"/><path class="cls-1" d="M367.7,422.11l-5.57-18.44,18.44-5.57,5.57,18.44-18.44,5.57ZM391.67,501.54l-21.08-69.87,18.44-5.57,21.08,69.87-18.44,5.57Z"/><path class="cls-1" d="M427.28,490.8l-21.08-69.87,18.44-5.57,21.08,69.87-18.44,5.57ZM468,478.51l-12.17-40.32c-1.23-4.08-3.18-6.94-5.85-8.55-2.67-1.62-5.86-1.87-9.59-.74-3.41,1.03-5.76,2.78-7.05,5.25-1.29,2.47-1.41,5.43-.37,8.89l-6.08-15.06c.75-4.83,2.31-8.85,4.69-12.07,2.38-3.21,5.71-5.47,9.97-6.75,7.49-2.26,14.09-1.35,19.77,2.74,5.69,4.09,10,10.97,12.92,20.67l12.19,40.39-18.44,5.57ZM508.73,466.22l-12.17-40.32c-1.23-4.08-3.16-6.94-5.78-8.57-2.62-1.63-5.73-1.91-9.32-.82-3.55,1.07-5.95,2.96-7.21,5.67-1.27,2.71-1.31,6.01-.13,9.92l-8.31-15.12c.86-5.11,2.7-9.39,5.52-12.86,2.82-3.47,6.36-5.85,10.62-7.14,7.58-2.29,14.25-1.4,20.01,2.66,5.76,4.07,10.1,10.94,13.02,20.64l12.19,40.39-18.44,5.57Z"/><path class="cls-1" d="M575.61,447.14c-10.14,3.06-18.83,2.71-26.06-1.06-7.23-3.77-12.35-10.63-15.36-20.59l-2.38-7.88c-3.14-10.41-2.89-19.28.75-26.59,3.64-7.32,10.36-12.45,20.14-15.4,9.24-2.79,17.42-1.55,24.52,3.73,7.1,5.28,12.51,14.08,16.24,26.42l1.38,4.58-47.79,14.42-3.76-12.45,30.96-9.34-.69-1.56c-1.7-3.85-3.89-6.57-6.58-8.19-2.69-1.61-5.76-1.9-9.22-.85-4.44,1.34-7.49,3.7-9.13,7.09-1.65,3.39-1.74,7.5-.28,12.35l2.68,8.88c1.44,4.76,3.88,8.04,7.34,9.83,3.46,1.8,7.58,1.97,12.39.52,2.47-.74,4.78-1.92,6.94-3.53,2.16-1.61,3.98-3.52,5.47-5.73l15.28,7.07c-2.63,4.42-5.94,8.22-9.93,11.4s-8.29,5.48-12.91,6.87Z"/><path class="cls-1" d="M651.67,424.19c-4.67,1.41-9.38,2.32-14.12,2.72-4.75.41-9.35.29-13.8-.35-4.45-.64-8.64-1.76-12.55-3.37l3.96-17.79c4.71,1.96,9.78,3.03,15.22,3.23,5.44.19,10.77-.5,15.97-2.07,6.01-1.81,10.37-4.24,13.08-7.29,2.7-3.04,3.49-6.43,2.37-10.15l-.02-.07c-.85-2.83-2.34-4.74-4.45-5.74-2.11-1-4.64-1.45-7.57-1.35-2.93.1-6.06.39-9.4.85-3.99.57-8.07,1-12.24,1.31-4.17.3-8.18,0-12.03-.92-3.85-.92-7.31-2.85-10.38-5.79-3.07-2.94-5.49-7.38-7.28-13.3l-.02-.07c-2.88-9.56-1.98-17.9,2.73-25.02,4.71-7.12,12.8-12.42,24.29-15.89,5.29-1.6,10.95-2.34,16.96-2.22,6.01.12,11.87,1.11,17.56,2.96l-3.09,17.97c-4.57-1.51-9.12-2.35-13.65-2.53-4.53-.17-8.68.31-12.45,1.44-5.65,1.71-9.75,3.96-12.28,6.75-2.53,2.8-3.29,5.88-2.28,9.24l.02.07c.95,3.14,2.58,5.24,4.91,6.3,2.33,1.06,5.09,1.54,8.29,1.43,3.2-.11,6.61-.34,10.22-.7,3.99-.42,8-.66,12.04-.73,4.04-.07,7.91.42,11.6,1.46,3.69,1.04,6.98,3.01,9.86,5.91,2.88,2.9,5.16,7.11,6.82,12.63l.04.13c2.84,9.42,1.79,17.71-3.15,24.86-4.94,7.15-13.34,12.51-25.19,16.08Z"/><path class="cls-1" d="M693.73,303.61l29.53,97.88-19.12,5.77-29.53-97.88,19.12-5.77Z"/><path class="cls-1" d="M762.62,329.9l33.93-10.24,5.77,19.12c2.22,7.36,2.68,14.24,1.38,20.63s-4.16,11.9-8.56,16.54c-4.4,4.63-10.2,8.03-17.38,10.2-7.23,2.18-13.97,2.66-20.24,1.44-6.27-1.22-11.67-3.97-16.22-8.25-4.55-4.28-7.87-9.88-9.95-16.79l-8.71-28.88c-2.22-7.36-2.68-14.22-1.37-20.59,1.31-6.37,4.17-11.87,8.57-16.5,4.4-4.63,10.2-8.03,17.38-10.2,5.92-1.79,11.68-2.2,17.29-1.25,5.6.95,10.72,3.11,15.35,6.46s8.41,7.77,11.34,13.25l-19.93,6.01c-1.95-2.89-4.65-4.75-8.11-5.59-3.46-.84-6.85-.76-10.17.24-4.98,1.5-8.5,4.3-10.54,8.4-2.04,4.09-2.28,8.76-.69,14.02l8.71,28.88c1.4,4.62,4.06,7.87,8.01,9.74,3.94,1.87,8.45,2.04,13.52.51,4.98-1.5,8.52-4.22,10.61-8.16,2.09-3.94,2.32-8.62.68-14.05l-.49-1.62-14.81,4.47-5.36-17.77Z"/></g></svg>