<?xml version="1.0" encoding="utf-8"?>
<!-- Generator: Adobe Illustrator 27.2.0, SVG Export Plug-In . SVG Version: 6.00 Build 0)  -->
<svg version="1.1" xmlns="http://www.w3.org/2000/svg" xmlns:xlink="http://www.w3.org/1999/xlink" x="0px" y="0px"
	 viewBox="0 0 32 32" style="enable-background:new 0 0 32 32;" xml:space="preserve">
<style type="text/css">
	.st0{fill:#FF1D25;}
	.st1{fill:#279ADF;}
	.st2{fill:none;}
	.st3{fill:#D3D3D3;}
	.st4{fill:#231815;}
	.st5{fill:#E6E6E6;}
</style>
<g id="レイヤー_1">
</g>
<g id="レイヤー_2">
	<g>
		<g>
			<g>
				<path class="st0" d="M16.21,20.45h-3.55c-0.4,0-0.73-0.33-0.73-0.73v-4.01c0-1.18-1.01-2.12-2.21-2
					c-1.05,0.1-1.81,1.04-1.81,2.09v7.35c0,0.73,0.59,1.32,1.32,1.32h6.98V20.45z"/>
				<polyline class="st1" points="16.21,20.45 20.48,20.45 20.48,13.7 24.5,13.7 24.5,24.48 16.21,24.48 				"/>
				<rect x="20.48" y="7.94" class="st1" width="4.02" height="4.02"/>
				<circle class="st0" cx="9.92" cy="9.95" r="2.42"/>
			</g>
		</g>
		<g>
			<rect x="14.87" y="20.45" class="st1" width="1.34" height="1.34"/>
			<rect x="14.87" y="21.79" class="st3" width="1.34" height="1.34"/>
			<rect x="13.53" y="21.79" class="st1" width="1.34" height="1.34"/>
			<rect x="13.53" y="23.13" class="st3" width="1.34" height="1.34"/>
			<rect x="16.22" y="20.45" class="st0" width="1.34" height="1.34"/>
			<rect x="16.22" y="23.13" class="st3" width="1.34" height="1.34"/>
			<rect x="17.56" y="20.45" class="st3" width="1.34" height="1.34"/>
			<rect x="17.56" y="21.79" class="st0" width="1.34" height="1.34"/>
			<rect x="14.87" y="23.13" class="st0" width="1.34" height="1.34"/>
			<rect x="16.22" y="21.79" class="st1" width="1.34" height="1.34"/>
			<rect x="17.56" y="23.13" class="st1" width="1.34" height="1.34"/>
			<rect x="13.53" y="20.45" class="st0" width="1.34" height="1.34"/>
		</g>
	</g>
</g>
<g id="レイヤー_3">
</g>
</svg>
