<?xml version="1.0" encoding="UTF-8"?><svg id="_レイヤー_2" xmlns="http://www.w3.org/2000/svg" viewBox="0 0 32 32"><defs><style>.cls-1{fill:#ff1d25;}.cls-2{fill:#d3d3d3;}.cls-3{fill:#279adf;}</style></defs><g><path class="cls-1" d="m15.95,20.32h-3.44c-.39,0-.71-.32-.71-.71v-3.89c0-1.14-.98-2.05-2.14-1.94-1.01.1-1.76,1.01-1.76,2.03v7.14c0,.71.57,1.28,1.28,1.28h6.77v-3.9Z"/><polyline class="cls-3" points="15.95 20.32 20.1 20.32 20.1 13.77 24 13.77 24 24.22 15.95 24.22"/><rect class="cls-3" x="20.1" y="8.17" width="3.9" height="3.9"/><circle class="cls-1" cx="9.85" cy="10.13" r="2.35"/></g><g><rect class="cls-3" x="14.66" y="20.32" width="1.3" height="1.3"/><rect class="cls-2" x="14.66" y="21.62" width="1.3" height="1.3"/><rect class="cls-3" x="13.35" y="21.62" width="1.3" height="1.3"/><rect class="cls-2" x="13.35" y="22.92" width="1.3" height="1.3"/><rect class="cls-1" x="15.96" y="20.32" width="1.3" height="1.3"/><rect class="cls-2" x="15.96" y="22.92" width="1.3" height="1.3"/><rect class="cls-2" x="17.26" y="20.32" width="1.3" height="1.3"/><rect class="cls-1" x="17.26" y="21.62" width="1.3" height="1.3"/><rect class="cls-1" x="14.66" y="22.92" width="1.3" height="1.3"/><rect class="cls-3" x="15.96" y="21.62" width="1.3" height="1.3"/><rect class="cls-3" x="17.26" y="22.92" width="1.3" height="1.3"/><rect class="cls-1" x="13.35" y="20.32" width="1.3" height="1.3"/></g></svg>