<?xml version="1.0" encoding="utf-8"?>
<!-- Generator: Adobe Illustrator 27.2.0, SVG Export Plug-In . SVG Version: 6.00 Build 0)  -->
<svg version="1.1" xmlns="http://www.w3.org/2000/svg" xmlns:xlink="http://www.w3.org/1999/xlink" x="0px" y="0px"
	 viewBox="0 0 240 32" style="enable-background:new 0 0 240 32;" xml:space="preserve">
<style type="text/css">
	.st0{fill:#FF1D25;}
	.st1{fill:#279ADF;}
	.st2{fill:none;}
	.st3{fill:#D3D3D3;}
	.st4{fill:#231815;}
	.st5{fill:#E6E6E6;}
</style>
<g id="レイヤー_1">
	<g>
		<g>
			<g>
				<path class="st4" d="M39.6,19.13h-5.33l-1.21,3.97h-1.16l4.53-14.22h1.04l4.53,14.22h-1.16L39.6,19.13z M34.59,18.09h4.69
					l-2.34-7.63L34.59,18.09z"/>
				<path class="st4" d="M45.62,23.11H44.5V8.89h1.11V23.11z"/>
				<path class="st4" d="M55.96,19.61c0-0.79-0.23-1.42-0.68-1.87s-1.3-0.89-2.53-1.31c-1.24-0.42-2.14-0.88-2.72-1.4
					c-0.76-0.67-1.14-1.56-1.14-2.66c0-1.09,0.37-1.97,1.12-2.66s1.71-1.03,2.9-1.03c1.21,0,2.2,0.4,2.97,1.19s1.15,1.82,1.15,3.07
					H55.9c0-0.96-0.27-1.73-0.81-2.32s-1.27-0.88-2.19-0.88c-0.9,0-1.61,0.24-2.12,0.73S50,11.59,50,12.36
					c0,0.72,0.24,1.3,0.73,1.76s1.27,0.86,2.33,1.22s1.88,0.72,2.42,1.1s0.95,0.83,1.21,1.34s0.39,1.12,0.39,1.82
					c0,1.11-0.38,2.01-1.13,2.69s-1.75,1.02-2.98,1.02c-0.83,0-1.59-0.17-2.28-0.51s-1.22-0.83-1.61-1.47s-0.58-1.4-0.58-2.27h1.11
					c0,1,0.3,1.79,0.91,2.36s1.42,0.86,2.45,0.86c0.9,0,1.62-0.24,2.16-0.72S55.96,20.42,55.96,19.61z"/>
				<path class="st4" d="M67.26,9.95h-4.04v13.16h-1.12V9.95h-4.03V8.89h9.2V9.95z"/>
				<path class="st4" d="M81.06,18.68c-0.1,1.59-0.53,2.76-1.29,3.51s-1.8,1.12-3.13,1.12c-1.37,0-2.46-0.52-3.25-1.56
					s-1.19-2.45-1.2-4.23v-3.09c0-1.79,0.41-3.19,1.22-4.21s1.92-1.52,3.33-1.52c1.33,0,2.36,0.38,3.09,1.14s1.15,1.93,1.25,3.51
					h-1.13c-0.1-1.29-0.41-2.21-0.91-2.76s-1.27-0.83-2.29-0.83c-1.07,0-1.91,0.4-2.51,1.2s-0.9,1.96-0.9,3.49v3.05
					c0,1.51,0.29,2.69,0.87,3.52s1.4,1.26,2.45,1.26c1.11,0,1.91-0.28,2.4-0.83s0.79-1.47,0.89-2.76H81.06z"/>
				<path class="st4" d="M87.85,13.56c-0.26-0.05-0.49-0.07-0.68-0.07c-0.6,0-1.1,0.21-1.51,0.62s-0.69,0.98-0.86,1.71v7.29h-1.08
					V12.54h1.06l0.02,1.58c0.51-1.19,1.32-1.78,2.42-1.78c0.29,0,0.5,0.04,0.65,0.13L87.85,13.56z"/>
				<path class="st4" d="M92.94,23.3c-1.24,0-2.22-0.41-2.92-1.22s-1.06-1.97-1.07-3.48v-1.29c0-1.55,0.34-2.77,1.02-3.65
					s1.61-1.32,2.79-1.32c1.15,0,2.02,0.37,2.62,1.12s0.91,1.89,0.92,3.44v1.02h-6.28v0.6c0,1.21,0.26,2.14,0.78,2.8
					s1.25,0.99,2.19,0.99c1.04,0,1.88-0.38,2.53-1.14l0.57,0.72C95.4,22.83,94.35,23.3,92.94,23.3z M92.75,13.36
					c-0.85,0-1.51,0.3-1.97,0.9s-0.71,1.48-0.76,2.64h5.19v-0.28C95.16,14.45,94.34,13.36,92.75,13.36z"/>
				<path class="st4" d="M104.29,23.11c-0.1-0.34-0.16-0.83-0.2-1.46c-0.33,0.53-0.74,0.94-1.25,1.23s-1.07,0.43-1.67,0.43
					c-0.91,0-1.62-0.26-2.13-0.77s-0.76-1.25-0.76-2.2c0-1.04,0.35-1.85,1.06-2.46s1.68-0.91,2.92-0.92h1.82v-1.47
					c0-0.76-0.19-1.3-0.56-1.63s-0.92-0.49-1.65-0.49c-0.67,0-1.22,0.2-1.65,0.59c-0.43,0.39-0.64,0.9-0.64,1.51l-1.08-0.01
					c0-0.87,0.33-1.6,0.98-2.2s1.47-0.9,2.45-0.9c1.06,0,1.87,0.27,2.41,0.8s0.82,1.31,0.82,2.33v5.19c0,1.04,0.09,1.81,0.28,2.32
					v0.12H104.29z M101.31,22.26c0.64,0,1.2-0.17,1.69-0.5s0.85-0.77,1.08-1.33v-2.57h-1.72c-0.99,0.01-1.73,0.23-2.24,0.66
					c-0.5,0.43-0.75,1-0.75,1.72C99.38,21.59,100.02,22.26,101.31,22.26z"/>
				<path class="st4" d="M109.55,9.85v2.7h1.81v0.98h-1.81v7.02c0,0.58,0.09,1.01,0.26,1.29s0.46,0.42,0.86,0.42
					c0.18,0,0.44-0.03,0.78-0.1l0.03,0.98c-0.25,0.11-0.6,0.17-1.06,0.17c-1.27,0-1.92-0.87-1.95-2.62v-7.17h-1.63v-0.98h1.63v-2.7
					H109.55z"/>
				<path class="st4" d="M113.68,9.5c0-0.22,0.06-0.41,0.19-0.57s0.3-0.23,0.53-0.23s0.41,0.08,0.53,0.23s0.19,0.35,0.19,0.57
					s-0.06,0.41-0.19,0.56s-0.3,0.23-0.53,0.23s-0.4-0.08-0.53-0.23S113.68,9.72,113.68,9.5z M114.93,23.11h-1.09V12.54h1.09V23.11z
					"/>
				<path class="st4" d="M120.73,21.41l2.6-8.87h1.11l-3.29,10.57h-0.86l-3.31-10.57h1.11L120.73,21.41z"/>
				<path class="st4" d="M129.9,23.3c-1.24,0-2.22-0.41-2.92-1.22s-1.06-1.97-1.07-3.48v-1.29c0-1.55,0.34-2.77,1.02-3.65
					s1.61-1.32,2.79-1.32c1.15,0,2.02,0.37,2.62,1.12s0.91,1.89,0.92,3.44v1.02h-6.28v0.6c0,1.21,0.26,2.14,0.78,2.8
					s1.25,0.99,2.19,0.99c1.04,0,1.88-0.38,2.53-1.14l0.57,0.72C132.35,22.83,131.31,23.3,129.9,23.3z M129.71,13.36
					c-0.85,0-1.51,0.3-1.97,0.9s-0.71,1.48-0.76,2.64h5.19v-0.28C132.12,14.45,131.3,13.36,129.71,13.36z"/>
				<path class="st4" d="M149.21,23.11h-1.12V16.3h-6.68v6.81h-1.11V8.89h1.11v6.38h6.68V8.89h1.12V23.11z"/>
				<path class="st4" d="M161.11,18.68c-0.1,1.59-0.53,2.76-1.29,3.51s-1.8,1.12-3.13,1.12c-1.37,0-2.46-0.52-3.25-1.56
					s-1.19-2.45-1.2-4.23v-3.09c0-1.79,0.41-3.19,1.22-4.21s1.92-1.52,3.33-1.52c1.33,0,2.36,0.38,3.09,1.14s1.15,1.93,1.25,3.51
					h-1.13c-0.1-1.29-0.41-2.21-0.91-2.76s-1.27-0.83-2.29-0.83c-1.07,0-1.91,0.4-2.51,1.2s-0.9,1.96-0.9,3.49v3.05
					c0,1.51,0.29,2.69,0.87,3.52s1.4,1.26,2.45,1.26c1.11,0,1.91-0.28,2.4-0.83s0.79-1.47,0.89-2.76H161.11z"/>
				<path class="st4" d="M165.21,23.11h-1.11V8.89h1.11V23.11z"/>
				<path class="st4" d="M179.55,19.61c0-0.79-0.23-1.42-0.68-1.87s-1.3-0.89-2.53-1.31s-2.15-0.88-2.72-1.4
					c-0.76-0.67-1.14-1.56-1.14-2.66c0-1.09,0.37-1.97,1.12-2.66c0.75-0.68,1.72-1.03,2.9-1.03c1.21,0,2.2,0.4,2.97,1.19
					s1.15,1.82,1.15,3.07h-1.12c0-0.96-0.27-1.73-0.81-2.32s-1.27-0.88-2.19-0.88c-0.9,0-1.61,0.24-2.12,0.73s-0.78,1.11-0.78,1.88
					c0,0.72,0.24,1.3,0.73,1.76s1.27,0.86,2.33,1.22s1.88,0.72,2.42,1.1s0.95,0.83,1.21,1.34s0.39,1.12,0.39,1.82
					c0,1.11-0.38,2.01-1.13,2.69s-1.75,1.02-2.98,1.02c-0.83,0-1.59-0.17-2.28-0.51s-1.22-0.83-1.61-1.47s-0.58-1.4-0.58-2.27h1.11
					c0,1,0.3,1.79,0.91,2.36c0.61,0.57,1.42,0.86,2.45,0.86c0.9,0,1.62-0.24,2.16-0.72S179.55,20.42,179.55,19.61z"/>
				<path class="st4" d="M186.66,23.3c-1.24,0-2.22-0.41-2.92-1.22s-1.06-1.97-1.07-3.48v-1.29c0-1.55,0.34-2.77,1.02-3.65
					s1.61-1.32,2.79-1.32c1.15,0,2.02,0.37,2.62,1.12s0.91,1.89,0.92,3.44v1.02h-6.28v0.6c0,1.21,0.26,2.14,0.78,2.8
					s1.25,0.99,2.19,0.99c1.04,0,1.88-0.38,2.53-1.14l0.57,0.72C189.12,22.83,188.07,23.3,186.66,23.3z M186.48,13.36
					c-0.85,0-1.51,0.3-1.97,0.9s-0.71,1.48-0.76,2.64h5.19v-0.28C188.89,14.45,188.06,13.36,186.48,13.36z"/>
				<path class="st4" d="M193.42,12.54l0.03,1.58c0.66-1.19,1.6-1.78,2.83-1.78c1.36,0,2.24,0.65,2.64,1.94
					c0.33-0.64,0.76-1.13,1.28-1.46s1.1-0.49,1.71-0.49c1.9,0,2.87,1.22,2.92,3.67v7.09h-1.08v-7.02c-0.01-0.91-0.18-1.59-0.51-2.04
					s-0.86-0.67-1.6-0.67c-0.67,0.01-1.24,0.27-1.7,0.78s-0.73,1.15-0.79,1.91v7.03h-1.09v-6.99c0-0.92-0.17-1.61-0.51-2.06
					s-0.87-0.67-1.6-0.67c-0.59,0-1.11,0.21-1.54,0.62s-0.75,1-0.94,1.76v7.35h-1.08V12.54H193.42z"/>
				<path class="st4" d="M207.63,9.5c0-0.22,0.06-0.41,0.19-0.57s0.3-0.23,0.53-0.23s0.41,0.08,0.53,0.23s0.19,0.35,0.19,0.57
					s-0.06,0.41-0.19,0.56s-0.3,0.23-0.53,0.23s-0.4-0.08-0.53-0.23S207.63,9.72,207.63,9.5z M208.88,23.11h-1.09V12.54h1.09V23.11z
					"/>
				<path class="st4" d="M212.91,12.54l0.03,1.68c0.31-0.57,0.71-1.03,1.2-1.37s1.04-0.51,1.66-0.51c1.84,0,2.79,1.23,2.83,3.68
					v7.08h-1.07v-6.96c-0.01-0.94-0.17-1.64-0.5-2.09s-0.84-0.67-1.53-0.67c-0.57,0-1.08,0.21-1.53,0.64s-0.8,1.01-1.03,1.75v7.33
					h-1.08V12.54H212.91z"/>
				<path class="st4" d="M226.79,23.11c-0.1-0.34-0.16-0.83-0.2-1.46c-0.33,0.53-0.74,0.94-1.25,1.23s-1.07,0.43-1.67,0.43
					c-0.91,0-1.62-0.26-2.13-0.77s-0.76-1.25-0.76-2.2c0-1.04,0.35-1.85,1.06-2.46s1.68-0.91,2.92-0.92h1.82v-1.47
					c0-0.76-0.19-1.3-0.56-1.63s-0.92-0.49-1.65-0.49c-0.67,0-1.22,0.2-1.65,0.59s-0.64,0.9-0.64,1.51L221,15.45
					c0-0.87,0.33-1.6,0.98-2.2s1.47-0.9,2.45-0.9c1.06,0,1.87,0.27,2.41,0.8s0.82,1.31,0.82,2.33v5.19c0,1.04,0.09,1.81,0.28,2.32
					v0.12H226.79z M223.81,22.26c0.64,0,1.2-0.17,1.69-0.5s0.85-0.77,1.08-1.33v-2.57h-1.72c-0.99,0.01-1.74,0.23-2.24,0.66
					s-0.75,1-0.75,1.72C221.88,21.59,222.53,22.26,223.81,22.26z"/>
				<path class="st4" d="M234.76,13.56c-0.26-0.05-0.49-0.07-0.68-0.07c-0.6,0-1.1,0.21-1.51,0.62s-0.7,0.98-0.86,1.71v7.29h-1.08
					V12.54h1.06l0.02,1.58c0.51-1.19,1.32-1.78,2.42-1.78c0.29,0,0.5,0.04,0.65,0.13L234.76,13.56z"/>
			</g>
			<g>
				<g>
					<path class="st0" d="M13.71,19.09h-3.55c-0.4,0-0.73-0.33-0.73-0.73v-4.01c0-1.18-1.01-2.12-2.21-2
						c-1.05,0.1-1.81,1.04-1.81,2.09v7.35c0,0.73,0.59,1.32,1.32,1.32h6.98V19.09z"/>
					<polyline class="st1" points="13.71,19.09 17.98,19.09 17.98,12.34 22.01,12.34 22.01,23.11 13.71,23.11 					"/>
					<rect x="17.98" y="6.57" class="st1" width="4.02" height="4.02"/>
					<circle class="st0" cx="7.42" cy="8.58" r="2.42"/>
				</g>
			</g>
		</g>
		<g>
			<rect x="12.38" y="19.09" class="st1" width="1.34" height="1.34"/>
			<rect x="12.38" y="20.43" class="st3" width="1.34" height="1.34"/>
			<rect x="11.04" y="20.43" class="st1" width="1.34" height="1.34"/>
			<rect x="11.04" y="21.77" class="st3" width="1.34" height="1.34"/>
			<rect x="13.72" y="19.09" class="st0" width="1.34" height="1.34"/>
			<rect x="13.72" y="21.77" class="st3" width="1.34" height="1.34"/>
			<rect x="15.06" y="19.09" class="st3" width="1.34" height="1.34"/>
			<rect x="15.06" y="20.43" class="st0" width="1.34" height="1.34"/>
			<rect x="12.38" y="21.77" class="st0" width="1.34" height="1.34"/>
			<rect x="13.72" y="20.43" class="st1" width="1.34" height="1.34"/>
			<rect x="15.06" y="21.77" class="st1" width="1.34" height="1.34"/>
			<rect x="11.04" y="19.09" class="st0" width="1.34" height="1.34"/>
		</g>
	</g>
</g>
<g id="レイヤー_2">
</g>
<g id="レイヤー_3">
</g>
</svg>
